<?xml version="1.0" encoding="utf-8"?>
<!-- Generator: Adobe Illustrator 16.0.0, SVG Export Plug-In . SVG Version: 6.00 Build 0)  -->
<!DOCTYPE svg PUBLIC "-//W3C//DTD SVG 1.1//EN" "http://www.w3.org/Graphics/SVG/1.1/DTD/svg11.dtd">
<svg version="1.1" id="Capa_1" xmlns="http://www.w3.org/2000/svg" xmlns:xlink="http://www.w3.org/1999/xlink" x="0px" y="0px"
	 width="1100px" height="600px" viewBox="0 0 1100 600" enable-background="new 0 0 1100 600" xml:space="preserve">
<path fill="#AE2891" d="M603.32,236.016c0-25.898-18.281-40.195-50.391-40.195h-59.063v83.438h49.805
	C582.109,279.141,603.32,263.672,603.32,236.016z M818.359,221.016c-11.133-36.211-12.773-80.625-11.484-114.961
	c1.289-35.742-26.602-68.555-64.102-68.555H357.461c-37.617,0-65.391,32.93-64.102,68.555c1.172,34.336-0.352,78.75-11.484,114.961
	c-11.25,36.328-30.117,59.297-61.172,62.227v33.398c30.938,2.93,49.922,25.898,61.172,62.227
	c11.133,36.211,12.773,80.625,11.484,114.961c-1.289,35.742,26.602,68.555,64.102,68.555h385.195
	c37.617,0,65.391-32.93,64.102-68.555c-1.172-34.336,0.352-78.75,11.484-114.961c11.25-36.328,30.117-59.297,61.055-62.227v-33.398
	C848.477,280.313,829.492,257.344,818.359,221.016z M564.297,439.571H449.57V160.313h114.141c50.742,0,84.023,27.422,84.023,69.609
	c0,29.648-22.383,56.133-50.977,60.703v1.523c38.906,4.219,65.039,31.172,65.039,68.32
	C661.797,409.805,625.117,439.571,564.297,439.571z M552.578,312.188h-58.711v91.875h61.289c40.078,0,61.289-16.056,61.289-46.289
	C616.445,327.656,594.648,312.188,552.578,312.188z"/>
</svg>
