<?xml version="1.0" encoding="utf-8"?>
<!-- Generator: Adobe Illustrator 16.0.0, SVG Export Plug-In . SVG Version: 6.00 Build 0)  -->
<!DOCTYPE svg PUBLIC "-//W3C//DTD SVG 1.1//EN" "http://www.w3.org/Graphics/SVG/1.1/DTD/svg11.dtd">
<svg version="1.1" id="Capa_1" xmlns="http://www.w3.org/2000/svg" xmlns:xlink="http://www.w3.org/1999/xlink" x="0px" y="0px"
	 width="1100px" height="600px" viewBox="0 0 1100 600" enable-background="new 0 0 1100 600" xml:space="preserve">
<path fill="#AE2891" d="M812.5,93.75V150c0,51.797-117.539,93.75-262.5,93.75S287.5,201.797,287.5,150V93.75
	C287.5,41.977,405.039,0,550,0S812.5,41.977,812.5,93.75z M748.281,251.602c23.32-8.672,46.758-19.805,64.219-33.516V337.5
	c0,51.797-117.539,93.75-262.5,93.75s-262.5-41.953-262.5-93.75V218.086c17.496,13.711,39.867,24.844,64.277,33.516
	C404.289,270.352,474.414,281.25,550,281.25S695.664,270.352,748.281,251.602L748.281,251.602z M351.777,439.102
	C404.289,457.852,474.414,468.75,550,468.75s145.664-10.898,198.281-29.648c23.32-8.672,46.758-19.805,64.219-33.516V506.25
	C812.5,558.047,694.961,600,550,600s-262.5-41.953-262.5-93.75V405.586C304.996,419.297,327.367,430.43,351.777,439.102z"/>
</svg>
