<?xml version="1.0" encoding="utf-8"?>
<!-- Generator: Adobe Illustrator 16.0.0, SVG Export Plug-In . SVG Version: 6.00 Build 0)  -->
<!DOCTYPE svg PUBLIC "-//W3C//DTD SVG 1.1//EN" "http://www.w3.org/Graphics/SVG/1.1/DTD/svg11.dtd">
<svg version="1.1" id="Capa_1" xmlns="http://www.w3.org/2000/svg" xmlns:xlink="http://www.w3.org/1999/xlink" x="0px" y="0px"
	 width="1100px" height="600px" viewBox="0 0 1100 600" enable-background="new 0 0 1100 600" xml:space="preserve">
<path fill="#FFFFFF" d="M453.789,465.703c0,2.344-2.695,4.219-6.094,4.219c-3.867,0.352-6.563-1.523-6.563-4.219
	c0-2.344,2.695-4.219,6.094-4.219C450.742,461.133,453.789,463.007,453.789,465.703z M417.344,460.43
	c-0.82,2.344,1.523,5.038,5.039,5.742c3.047,1.172,6.563,0,7.266-2.344s-1.523-5.039-5.039-6.095
	C421.563,456.913,418.164,458.085,417.344,460.43L417.344,460.43z M469.141,458.437c-3.398,0.821-5.742,3.048-5.391,5.742
	c0.352,2.344,3.398,3.867,6.914,3.047c3.398-0.82,5.742-3.047,5.391-5.391C475.703,459.609,472.539,458.085,469.141,458.437z
	 M546.25,9.375c-162.539,0-286.875,123.398-286.875,285.938c0,129.961,81.797,241.172,198.633,280.313
	c15,2.695,20.273-6.563,20.273-14.18c0-7.266-0.352-47.344-0.352-71.953c0,0-82.031,17.578-99.258-34.922
	c0,0-13.359-34.102-32.578-42.891c0,0-26.836-18.398,1.875-18.047c0,0,29.18,2.344,45.234,30.234
	c25.664,45.234,68.672,32.227,85.43,24.492c2.695-18.75,10.313-31.758,18.75-39.492c-65.508-7.267-131.602-16.758-131.602-129.492
	c0-32.227,8.906-48.398,27.656-69.023c-3.047-7.617-13.008-39.023,3.047-79.57c24.492-7.617,80.859,31.641,80.859,31.641
	c23.438-6.563,48.633-9.961,73.594-9.961s50.156,3.398,73.594,9.961c0,0,56.367-39.375,80.859-31.641
	c16.055,40.664,6.094,71.953,3.047,79.57c18.75,20.742,30.234,36.914,30.234,69.023c0,113.086-69.023,122.108-134.531,129.492
	c10.781,9.258,19.922,26.836,19.922,54.375c0,39.492-0.352,88.359-0.352,97.969c0,7.617,5.391,16.875,20.273,14.18
	c117.188-38.906,196.641-150.117,196.641-280.078C840.625,132.774,708.789,9.375,546.25,9.375z M373.281,413.555
	c-1.523,1.172-1.172,3.866,0.82,6.094c1.875,1.875,4.57,2.695,6.094,1.172c1.523-1.172,1.172-3.867-0.82-6.094
	C377.5,412.852,374.805,412.031,373.281,413.555z M360.625,404.063c-0.82,1.522,0.352,3.397,2.695,4.569
	c1.875,1.172,4.219,0.821,5.039-0.82c0.82-1.523-0.352-3.398-2.695-4.57C363.32,402.538,361.445,402.891,360.625,404.063z
	 M398.594,445.781c-1.875,1.522-1.172,5.038,1.523,7.266c2.695,2.695,6.094,3.047,7.617,1.172c1.523-1.523,0.82-5.039-1.523-7.266
	C403.633,444.258,400.117,443.906,398.594,445.781z M385.234,428.554c-1.875,1.172-1.875,4.22,0,6.914
	c1.875,2.695,5.039,3.867,6.563,2.695c1.875-1.523,1.875-4.57,0-7.266C390.156,428.202,387.109,427.031,385.234,428.554
	L385.234,428.554z"/>
</svg>
