<?xml version="1.0" encoding="utf-8"?>
<!-- Generator: Adobe Illustrator 16.0.0, SVG Export Plug-In . SVG Version: 6.00 Build 0)  -->
<!DOCTYPE svg PUBLIC "-//W3C//DTD SVG 1.1//EN" "http://www.w3.org/Graphics/SVG/1.1/DTD/svg11.dtd">
<svg version="1.1" id="Capa_1" xmlns="http://www.w3.org/2000/svg" xmlns:xlink="http://www.w3.org/1999/xlink" x="0px" y="0px"
	 width="1100px" height="600px" viewBox="0 0 1100 600" enable-background="new 0 0 1100 600" xml:space="preserve">
<path fill="#AE2891" d="M287.5,37.5v525h525v-525H287.5z M573.203,446.953c0,51.094-30,74.414-73.711,74.414
	c-39.492,0-62.344-20.391-74.063-45.117l40.195-24.259c7.734,13.712,14.766,25.313,31.758,25.313
	c16.172,0,26.484-6.328,26.484-31.055V278.555h49.336V446.953z M689.922,521.367c-45.82,0-75.469-21.797-89.883-50.391
	l40.195-23.203c10.547,17.227,24.375,30,48.633,30c20.391,0,33.516-10.195,33.516-24.375c0-16.875-13.359-22.852-35.977-32.813
	l-12.305-5.273c-35.625-15.117-59.18-34.219-59.18-74.414c0-37.031,28.242-65.156,72.188-65.156
	c31.406,0,53.906,10.898,70.078,39.492l-38.438,24.609c-8.438-15.117-17.578-21.094-31.758-21.094
	c-14.414,0-23.555,9.141-23.555,21.094c0,14.766,9.141,20.742,30.352,30l12.305,5.273c41.953,17.93,65.508,36.328,65.508,77.578
	C771.602,496.991,736.68,521.367,689.922,521.367z"/>
</svg>
