<?xml version="1.0" encoding="utf-8"?>
<!-- Generator: Adobe Illustrator 16.0.0, SVG Export Plug-In . SVG Version: 6.00 Build 0)  -->
<!DOCTYPE svg PUBLIC "-//W3C//DTD SVG 1.1//EN" "http://www.w3.org/Graphics/SVG/1.1/DTD/svg11.dtd">
<svg version="1.1" id="Capa_1" xmlns="http://www.w3.org/2000/svg" xmlns:xlink="http://www.w3.org/1999/xlink" x="0px" y="0px"
	 width="1100px" height="600px" viewBox="0 0 1100 600" enable-background="new 0 0 1100 600" xml:space="preserve">
<path fill="#FDEEFF" d="M775,37.5H324.883c-20.625,0-37.383,16.992-37.383,37.852v449.297c0,20.859,16.758,37.852,37.383,37.852H775
	c20.625,0,37.5-16.992,37.5-37.852V75.352C812.5,54.492,795.625,37.5,775,37.5z M446.172,487.5h-77.813V236.953h77.93V487.5H446.172
	z M407.266,202.735c-24.961,0-45.117-20.273-45.117-45.117s20.156-45.117,45.117-45.117c24.844,0,45.117,20.273,45.117,45.117
	C452.383,182.578,432.227,202.735,407.266,202.735z M737.852,487.5h-77.813V365.625c0-29.063-0.586-66.445-40.43-66.445
	c-40.547,0-46.758,31.641-46.758,64.336V487.5h-77.813V236.953h74.648v34.219h1.055c10.43-19.688,35.859-40.43,73.711-40.43
	c78.75,0,93.398,51.914,93.398,119.414V487.5z"/>
</svg>
