<?xml version="1.0" encoding="utf-8"?>
<!-- Generator: Adobe Illustrator 16.0.0, SVG Export Plug-In . SVG Version: 6.00 Build 0)  -->
<!DOCTYPE svg PUBLIC "-//W3C//DTD SVG 1.1//EN" "http://www.w3.org/Graphics/SVG/1.1/DTD/svg11.dtd">
<svg version="1.1" id="Capa_1" xmlns="http://www.w3.org/2000/svg" xmlns:xlink="http://www.w3.org/1999/xlink" x="0px" y="0px"
	 width="1100px" height="600px" viewBox="0 0 1100 600" enable-background="new 0 0 1100 600" xml:space="preserve">
<path fill="#FDEEFF" d="M587.5,75c0-20.707,16.758-37.5,37.5-37.5h148.945l0,0c6.094,0,11.016,1.008,15.352,2.848
	c3.398,1.816,8.555,4.5,12.188,8.051c0,0.059,0,0.117,0.117,0.164c7.266,7.289,9.844,16.805,10.898,26.32c0,0.047,0,0.082,0,0.117
	v150c0,20.742-16.758,37.5-37.5,37.5s-37.5-16.758-37.5-37.5v-59.414L538.984,363.985c-14.648,14.648-38.32,14.648-52.969,0
	s-14.648-38.32,0-52.969L684.414,112.5H625C604.258,112.5,587.5,95.707,587.5,75L587.5,75z M287.5,150c0-41.426,33.574-75,75-75H475
	c20.742,0,37.5,16.793,37.5,37.5c0,20.742-16.758,37.5-37.5,37.5H362.5v337.5H700V375c0-20.742,16.758-37.5,37.5-37.5
	S775,354.258,775,375v112.5c0,41.367-33.633,75-75,75H362.5c-41.426,0-75-33.633-75-75V150z"/>
</svg>
