<?xml version="1.0" encoding="utf-8"?>
<!-- Generator: Adobe Illustrator 16.0.0, SVG Export Plug-In . SVG Version: 6.00 Build 0)  -->
<!DOCTYPE svg PUBLIC "-//W3C//DTD SVG 1.1//EN" "http://www.w3.org/Graphics/SVG/1.1/DTD/svg11.dtd">
<svg version="1.1" id="Capa_1" xmlns="http://www.w3.org/2000/svg" xmlns:xlink="http://www.w3.org/1999/xlink" x="0px" y="0px"
	 width="1100px" height="600px" viewBox="0 0 1100 600" enable-background="new 0 0 1100 600" xml:space="preserve">
<path fill="#FDEEFF" d="M428.125,356.25h-9.375V300h9.375c15.586,0,28.125,12.539,28.125,28.125S443.711,356.25,428.125,356.25z
	 M550,300h9.375c10.313,0,18.75,8.438,18.75,18.75v75c0,10.313-8.438,18.75-18.75,18.75H550V300z M587.5,0v150
	c0,20.742,16.758,37.5,37.5,37.5h150V525c0,41.367-33.633,75-75,75H400c-41.426,0-75-33.633-75-75V75c0-41.426,33.574-75,75-75
	H587.5z M400,262.5c-10.359,0-18.75,8.438-18.75,18.75v150c0,10.313,8.391,18.75,18.75,18.75s18.75-8.438,18.75-18.75v-37.5h9.375
	c36.211,0,65.625-29.414,65.625-65.625S464.336,262.5,428.125,262.5H400z M512.5,431.25c0,10.313,8.438,18.75,18.75,18.75h28.125
	c31.055,0,56.25-25.195,56.25-56.25v-75c0-31.055-25.195-56.25-56.25-56.25H531.25c-10.313,0-18.75,8.438-18.75,18.75V431.25z
	 M662.5,262.5c-10.313,0-18.75,8.438-18.75,18.75v150c0,10.313,8.438,18.75,18.75,18.75s18.75-8.438,18.75-18.75V375h37.5
	c10.313,0,18.75-8.438,18.75-18.75s-8.438-18.75-18.75-18.75h-37.5V300h37.5c10.313,0,18.75-8.438,18.75-18.75
	s-8.438-18.75-18.75-18.75H662.5z M625,0l150,150H625V0z"/>
</svg>
