<?xml version="1.0" encoding="utf-8"?>
<!-- Generator: Adobe Illustrator 16.0.0, SVG Export Plug-In . SVG Version: 6.00 Build 0)  -->
<!DOCTYPE svg PUBLIC "-//W3C//DTD SVG 1.1//EN" "http://www.w3.org/Graphics/SVG/1.1/DTD/svg11.dtd">
<svg version="1.1" id="Capa_1" xmlns="http://www.w3.org/2000/svg" xmlns:xlink="http://www.w3.org/1999/xlink" x="0px" y="0px"
	 width="1100px" height="600px" viewBox="0 0 1100 600" enable-background="new 0 0 1100 600" xml:space="preserve">
<path fill="#AE2891" d="M740.078,207.656c-6.328-2.109-12.656-4.102-18.984-5.977c1.055-4.336,1.992-8.672,2.93-13.008
	c14.414-69.844,4.922-125.977-27.07-144.492c-30.82-17.695-81.094,0.703-131.953,45c-5.039,4.336-9.961,8.906-14.648,13.477
	c-3.164-3.047-6.445-6.094-9.727-9.023C487.305,46.289,433.867,26.367,401.875,45c-30.703,17.813-39.844,70.664-26.953,136.758
	c1.289,6.563,2.695,13.008,4.336,19.57c-7.5,2.109-14.883,4.453-21.797,6.914C294.883,229.922,250,264.141,250,299.531
	c0,36.563,47.813,73.242,112.852,95.508c5.273,1.758,10.547,3.516,15.938,5.039c-1.758,7.031-3.281,13.945-4.688,21.094
	c-12.305,65.039-2.695,116.602,28.008,134.297c31.641,18.281,84.844-0.469,136.641-45.82c4.102-3.633,8.203-7.383,12.305-11.368
	c5.156,5.039,10.547,9.844,15.938,14.532c50.156,43.124,99.727,60.586,130.313,42.891c31.641-18.281,41.953-73.711,28.594-141.212
	c-1.055-5.155-2.227-10.429-3.516-15.82c3.75-1.054,7.383-2.226,11.016-3.397C801.016,372.89,850,336.68,850,299.531
	C850,264.024,803.828,229.571,740.078,207.656z M581.523,108.164c43.594-37.969,84.258-52.852,102.773-42.188
	c19.805,11.367,27.422,57.305,15,117.656c-0.82,3.984-1.641,7.852-2.695,11.719c-26.016-5.859-52.383-10.078-78.867-12.422
	c-15.234-21.797-31.875-42.656-49.922-62.227C572.383,116.367,576.836,112.266,581.523,108.164z M445.938,360.352
	c5.977,10.195,12.07,20.391,18.516,30.352c-18.281-1.993-36.445-4.923-54.375-8.789c5.156-16.875,11.602-34.336,19.102-52.148
	C434.57,340.077,440.078,350.274,445.938,360.352z M410.43,219.375c16.875-3.75,34.805-6.797,53.438-9.141
	c-6.211,9.727-12.305,19.688-18.047,29.766c-5.742,9.961-11.367,20.156-16.641,30.469
	C421.797,253.008,415.586,235.899,410.43,219.375z M442.539,300.117c7.734-16.172,16.172-31.992,25.078-47.578
	s18.516-30.703,28.594-45.586c17.578-1.289,35.508-1.992,53.789-1.992s36.328,0.703,53.789,1.992
	c9.961,14.766,19.453,29.883,28.477,45.352s17.461,31.289,25.43,47.344c-7.852,16.172-16.289,32.109-25.313,47.813
	c-8.906,15.586-18.398,30.703-28.359,45.703c-17.461,1.289-35.625,1.875-54.023,1.875s-36.211-0.586-53.438-1.641
	c-10.195-14.883-19.805-30.117-28.828-45.703S450.391,316.289,442.539,300.117L442.539,300.117z M654.18,360.117
	c5.977-10.313,11.602-20.742,17.109-31.289c7.5,16.992,14.063,34.219,19.805,51.914c-18.164,4.102-36.563,7.266-55.078,9.375
	C642.344,380.274,648.32,370.196,654.18,360.117L654.18,360.117z M671.055,270.469c-5.508-10.313-11.133-20.625-16.992-30.703
	c-5.742-9.961-11.719-19.805-17.93-29.531c18.867,2.344,36.914,5.508,53.789,9.375C684.531,236.953,678.203,253.828,671.055,270.469
	z M550.234,138.633c12.305,13.359,23.906,27.422,34.688,41.953c-23.203-1.055-46.523-1.055-69.727,0
	C526.68,165.469,538.516,151.406,550.234,138.633z M414.297,66.797c19.688-11.484,63.398,4.922,109.453,45.703
	c2.93,2.578,5.859,5.391,8.906,8.203c-18.164,19.57-34.922,40.43-50.273,62.227c-26.484,2.344-52.734,6.445-78.75,12.188
	c-1.523-5.977-2.813-12.07-4.102-18.164C388.516,120.235,395.781,77.461,414.297,66.797z M385.586,375.703
	c-4.922-1.406-9.727-2.93-14.531-4.57c-24.961-7.852-53.32-20.273-73.828-36.563c-11.836-8.203-19.805-20.859-22.031-35.039
	c0-21.445,37.031-48.867,90.469-67.5c6.68-2.344,13.477-4.453,20.273-6.445c7.969,25.43,17.578,50.391,28.711,74.531
	C403.398,324.61,393.672,349.922,385.586,375.703z M522.227,490.547c-19.336,17.695-41.719,31.758-66.094,41.367
	c-13.008,6.211-28.008,6.797-41.367,1.523c-18.633-10.782-26.367-52.149-15.82-107.813c1.289-6.563,2.695-13.125,4.336-19.57
	c26.25,5.625,52.734,9.492,79.57,11.484c15.469,21.914,32.461,42.891,50.625,62.578
	C529.727,483.749,525.977,487.265,522.227,490.547L522.227,490.547z M550.938,462.071c-11.953-12.891-23.906-27.188-35.508-42.539
	c11.25,0.469,22.852,0.703,34.57,0.703c12.07,0,23.906-0.234,35.625-0.82C574.844,434.297,563.242,448.477,550.938,462.071z
	 M704.102,497.227c-1.055,14.297-8.086,27.656-19.336,36.68c-18.633,10.781-58.359-3.281-101.25-40.078
	c-4.922-4.219-9.844-8.789-14.883-13.477c17.93-19.805,34.453-40.781,49.453-62.813c26.836-2.227,53.555-6.328,79.922-12.305
	c1.172,4.805,2.227,9.609,3.164,14.297C706.914,444.844,707.852,471.211,704.102,497.227L704.102,497.227z M725.43,371.25
	c-3.281,1.055-6.563,2.109-9.961,3.047c-8.203-25.547-18.281-50.508-29.883-74.766c11.25-23.906,20.742-48.516,28.711-73.711
	c6.094,1.758,11.953,3.633,17.578,5.508c54.609,18.75,92.93,46.641,92.93,67.969C824.805,322.266,783.906,351.914,725.43,371.25z
	 M550,353.672c29.648,0,53.672-24.023,53.672-53.672S579.648,246.328,550,246.328S496.328,270.352,496.328,300
	S520.352,353.672,550,353.672z"/>
</svg>
