<?xml version="1.0" encoding="utf-8"?>
<!-- Generator: Adobe Illustrator 16.0.0, SVG Export Plug-In . SVG Version: 6.00 Build 0)  -->
<!DOCTYPE svg PUBLIC "-//W3C//DTD SVG 1.1//EN" "http://www.w3.org/Graphics/SVG/1.1/DTD/svg11.dtd">
<svg version="1.1" id="Capa_1" xmlns="http://www.w3.org/2000/svg" xmlns:xlink="http://www.w3.org/1999/xlink" x="0px" y="0px"
	 width="1100px" height="600px" viewBox="0 0 1100 600" enable-background="new 0 0 1100 600" xml:space="preserve">
<path fill="#AE2891" d="M322.305,198.516L441.25,524.297C358.047,483.985,300.742,398.672,300.742,300
	C300.742,263.789,308.477,229.571,322.305,198.516z M718.281,287.461c0-30.82-11.016-52.148-20.508-68.789
	c-12.656-20.508-24.492-37.969-24.492-58.477c0-22.969,17.344-44.297,41.836-44.297c1.055,0,2.109,0.117,3.281,0.234
	C673.984,75.469,614.922,50.625,550,50.625c-87.07,0-163.711,44.648-208.359,112.383c5.859,0.234,11.367,0.352,16.055,0.352
	c26.016,0,66.445-3.164,66.445-3.164c13.477-0.82,15,18.984,1.641,20.508c0,0-13.477,1.523-28.477,2.344l90.82,269.999
	l54.609-163.593l-38.789-106.406c-13.477-0.82-26.133-2.344-26.133-2.344c-13.477-0.82-11.836-21.328,1.523-20.508
	c0,0,41.133,3.164,65.625,3.164c26.016,0,66.445-3.164,66.445-3.164c13.477-0.82,15,18.984,1.641,20.508
	c0,0-13.477,1.523-28.477,2.344l90.117,268.008l24.844-83.086C710.078,333.516,718.281,308.789,718.281,287.461z M554.336,321.796
	L479.57,539.18c22.383,6.563,45.938,10.195,70.43,10.195c29.063,0,56.836-5.039,82.734-14.18c-0.703-1.055-1.289-2.227-1.758-3.398
	L554.336,321.796z M768.789,180.352c1.055,7.969,1.641,16.406,1.641,25.664c0,25.313-4.688,53.672-18.984,89.297l-76.172,220.194
	C749.453,472.266,799.258,391.992,799.258,300C799.258,256.641,788.242,215.86,768.789,180.352L768.789,180.352z M840.625,300
	c0,160.313-130.43,290.625-290.625,290.625c-160.313,0-290.625-130.43-290.625-290.625C259.375,139.688,389.688,9.375,550,9.375
	C710.195,9.375,840.625,139.688,840.625,300z M827.266,300c0-152.93-124.453-277.266-277.266-277.266
	c-152.93,0-277.266,124.336-277.266,277.266S397.188,577.266,550,577.266C702.93,577.266,827.266,452.93,827.266,300z"/>
</svg>
